<?xml version="1.0" encoding="UTF-8" standalone="no"?>
<!DOCTYPE svg PUBLIC "-//W3C//DTD SVG 1.1//EN"
"http://www.w3.org/Graphics/SVG/1.1/DTD/svg11.dtd">
<svg viewBox="0 0 909 1286" version="1.1" xmlns="http://www.w3.org/2000/svg" xmlns:xlink="http://www.w3.org/1999/xlink">
<defs>
<style type="text/css"><![CDATA[
.g0_2{
fill: none;
stroke: #000;
stroke-width: 0.608;
stroke-miterlimit: 10;
}
]]></style>
</defs>
<path d="M129.9 166.8H875.5M130.2 198.1v-31m67.7 31v-31m106.6 31v-31m383.6 31v-31m103.6 31v-31m83.5 31v-31m-745 62.1V198.1m67.7 31.1V198.1m106.6 31.1V198.1m383.6 31.1V198.1m103.6 31.1V198.1m83.5 31.1V198.1M129.9 229.5H875.5M130.2 260.8v-31m67.7 31v-31m106.6 31v-31m383.6 31v-31m103.6 31v-31m83.5 31v-31M129.9 261.1H875.5M130.2 292.5V261.4m67.7 31.1V261.4m106.6 31.1V261.4m383.6 31.1V261.4m103.6 31.1V261.4m83.5 31.1V261.4M129.9 292.8H875.5M130.2 324.1v-31m67.7 31v-31m106.6 31v-31m383.6 31v-31m103.6 31v-31m83.5 31v-31M129.9 324.4H875.5M130.2 355.8V324.7m67.7 31.1V324.7m106.6 31.1V324.7m383.6 31.1V324.7m103.6 31.1V324.7m83.5 31.1V324.7M129.9 356.1H875.5M130.2 387.5V356.4m67.7 31.1V356.4m106.6 31.1V356.4m383.6 31.1V356.4m103.6 31.1V356.4m83.5 31.1V356.4m-745 62.1v-31m67.7 31v-31m106.6 31v-31m383.6 31v-31m103.6 31v-31m83.5 31v-31m-745 62.1V418.5m67.7 31.1V418.5m106.6 31.1V418.5m383.6 31.1V418.5m103.6 31.1V418.5m83.5 31.1V418.5m-745 62.1v-31m67.7 31v-31m106.6 31v-31m383.6 31v-31m103.6 31v-31m83.5 31v-31M130.2 517V480.6M197.9 517V480.6M304.5 517V480.6M688.1 517V480.6M791.7 517V480.6M875.2 517V480.6m-745 67.5V517m67.7 31.1V517m106.6 31.1V517m383.6 31.1V517m103.6 31.1V517m83.5 31.1V517m-745 66.6V548.1m67.7 35.5V548.1m106.6 35.5V548.1m383.6 35.5V548.1m103.6 35.5V548.1m83.5 35.5V548.1M129.9 583.9H875.5M130.2 615.3V584.2m67.7 31.1V584.2m106.6 31.1V584.2m383.6 31.1V584.2m103.6 31.1V584.2m83.5 31.1V584.2m-745 62.1v-31m67.7 31v-31m106.6 31v-31m383.6 31v-31m103.6 31v-31m83.5 31v-31m-745 62.1V646.3m67.7 31.1V646.3m106.6 31.1V646.3m383.6 31.1V646.3m103.6 31.1V646.3m83.5 31.1V646.3m-745 62.1v-31m67.7 31v-31m106.6 31v-31m383.6 31v-31m103.6 31v-31m83.5 31v-31m-745 62.1V708.4m67.7 31.1V708.4m106.6 31.1V708.4m383.6 31.1V708.4m103.6 31.1V708.4m83.5 31.1V708.4m-745 62.1v-31m67.7 31v-31m106.6 31v-31m383.6 31v-31m103.6 31v-31m83.5 31v-31m-745 62.1V770.5m67.7 31.1V770.5m106.6 31.1V770.5m383.6 31.1V770.5m103.6 31.1V770.5m83.5 31.1V770.5M129.9 801.9H875.5M167.8 853.4H741.6M168.1 884.8v-31m67.7 31v-31m119.6 31v-31m198.8 31v-31m103.6 31v-31m83.5 31v-31M168.1 915.9V884.8m67.7 31.1V884.8m119.6 31.1V884.8m198.8 31.1V884.8m103.6 31.1V884.8m83.5 31.1V884.8M167.8 916.2H741.6M168.1 947.5v-31m67.7 31v-31m119.6 31v-31m198.8 31v-31m103.6 31v-31m83.5 31v-31M168.1 978.6V947.5m67.7 31.1V947.5m119.6 31.1V947.5m198.8 31.1V947.5m103.6 31.1V947.5m83.5 31.1V947.5m-573.2 62.1v-31m67.7 31v-31m119.6 31v-31m198.8 31v-31m103.6 31v-31m83.5 31v-31m-573.5 31.3H741.6" class="g0_2"/>
</svg>