<?xml version="1.0" encoding="UTF-8" standalone="no"?>
<!DOCTYPE svg PUBLIC "-//W3C//DTD SVG 1.1//EN"
"http://www.w3.org/Graphics/SVG/1.1/DTD/svg11.dtd">
<svg viewBox="0 0 909 1286" version="1.1" xmlns="http://www.w3.org/2000/svg" xmlns:xlink="http://www.w3.org/1999/xlink">
<defs>
<style type="text/css"><![CDATA[
.g0_4{
fill: none;
stroke: #000;
stroke-width: 0.608;
stroke-miterlimit: 10;
}
]]></style>
</defs>
<path d="M133.4 170H776.1M133.7 201.4V170.3M264 201.4V170.3m72.3 31.1V170.3m246.4 31.1V170.3m103 31.1V170.3m90.1 31.1V170.3M133.7 232.4v-31m130.3 31v-31m72.3 31v-31m246.4 31v-31m103 31v-31m90.1 31v-31M133.4 232.7H776.1M133.7 264.1V233M264 264.1V233m72.3 31.1V233m246.4 31.1V233m103 31.1V233m90.1 31.1V233M133.7 295.1v-31m130.3 31v-31m72.3 31v-31m246.4 31v-31m103 31v-31m90.1 31v-31M133.4 295.4H776.1M133.7 326.8V295.7M264 326.8V295.7m72.3 31.1V295.7m246.4 31.1V295.7m103 31.1V295.7m90.1 31.1V295.7M133.4 327.1H776.1M133.7 358.4v-31m130.3 31v-31m72.3 31v-31m246.4 31v-31m103 31v-31m90.1 31v-31M133.7 389.5V358.4M264 389.5V358.4m72.3 31.1V358.4m246.4 31.1V358.4m103 31.1V358.4m90.1 31.1V358.4M133.4 389.8H776.1M133.7 421.1v-31m130.3 31v-31m72.3 31v-31m246.4 31v-31m103 31v-31m90.1 31v-31M133.7 452.2V421.1M264 452.2V421.1m72.3 31.1V421.1m246.4 31.1V421.1m103 31.1V421.1m90.1 31.1V421.1M133.4 452.5H776.1m-640.3 55H773.6M136.1 538.8v-31m130.3 31v-31m72.4 31v-31m241.5 31v-31m103 31v-31m90 31v-31M136.1 569.9V538.8m130.3 31.1V538.8m72.4 31.1V538.8m241.5 31.1V538.8m103 31.1V538.8m90 31.1V538.8M135.8 570.2H773.6M136.1 601.6V570.5m130.3 31.1V570.5m72.4 31.1V570.5m241.5 31.1V570.5m103 31.1V570.5m90 31.1V570.5M135.8 601.9H773.6M136.1 633.2v-31m130.3 31v-31m72.4 31v-31m241.5 31v-31m103 31v-31m90 31v-31M136.1 664.3V633.2m130.3 31.1V633.2m72.4 31.1V633.2m241.5 31.1V633.2m103 31.1V633.2m90 31.1V633.2M135.8 664.6H773.6M136.1 695.9v-31m130.3 31v-31m72.4 31v-31m241.5 31v-31m103 31v-31m90 31v-31M136.1 727V695.9M266.4 727V695.9M338.8 727V695.9M580.3 727V695.9m103 31.1V695.9m90 31.1V695.9M135.8 727.3H773.6M136.1 758.6v-31m130.3 31v-31m72.4 31v-31m241.5 31v-31m103 31v-31m90 31v-31M135.8 758.9H773.6m-595.4 55H731.3M178.5 845.3V814.2m130.3 31.1V814.2m72.4 31.1V814.2m156.7 31.1V814.2m103 31.1V814.2M731 845.3V814.2M178.5 876.3v-31m130.3 31v-31m72.4 31v-31m156.7 31v-31m103 31v-31m90.1 31v-31M178.2 876.6H731.3M178.5 908V876.9M308.8 908V876.9M381.2 908V876.9M537.9 908V876.9m103 31.1V876.9M731 908V876.9M178.5 939V908m130.3 31V908m72.4 31V908m156.7 31V908m103 31V908M731 939V908M178.2 939.4H731.3M178.5 970.7v-31m130.3 31v-31m72.4 31v-31m156.7 31v-31m103 31v-31m90.1 31v-31m-552.5 62.1V970.7m130.3 31.1V970.7m72.4 31.1V970.7m156.7 31.1V970.7m103 31.1V970.7m90.1 31.1V970.7m-552.8 31.4H731.3m-552.8 31.3v-31m130.3 31v-31m72.4 31v-31m156.7 31v-31m103 31v-31m90.1 31v-31m-552.5 62.1v-31.1m130.3 31.1v-31.1m72.4 31.1v-31.1m156.7 31.1v-31.1m103 31.1v-31.1m90.1 31.1v-31.1m-552.8 31.4H731.3m-552.8 31.3v-31m130.3 31v-31m72.4 31v-31m156.7 31v-31m103 31v-31m90.1 31v-31m-552.5 62.1v-31.1m130.3 31.1v-31.1m72.4 31.1v-31.1m156.7 31.1v-31.1m103 31.1v-31.1m90.1 31.1v-31.1m-552.8 31.4H731.3" class="g0_4"/>
</svg>