<?xml version="1.0" encoding="UTF-8" standalone="no"?>
<!DOCTYPE svg PUBLIC "-//W3C//DTD SVG 1.1//EN"
"http://www.w3.org/Graphics/SVG/1.1/DTD/svg11.dtd">
<svg viewBox="0 0 909 1286" version="1.1" xmlns="http://www.w3.org/2000/svg" xmlns:xlink="http://www.w3.org/1999/xlink">
<defs>
<style type="text/css"><![CDATA[
.g0_5{
fill: none;
stroke: #000;
stroke-width: 0.718;
stroke-miterlimit: 10;
}
]]></style>
</defs>
<path d="M278.1 548h18.4m-.8 0h21.2m-.4 0h5.2m-.3 0h27.7m-.4 0h5.2m-.4 0h39.2m-.4 0h5.3m-.4 0h14.7m-.8 0h38.3m-.4 0h5.3m-.4 0h23.9m-.4 0h5.2m-.3 0h36.8m-.4 0H524m-.4 0h24.8m-.7 0h19.4m-.4 0h5.2m-.4 0h15.6m-.4 0H592m-.4 0h21.2m-.8 0h30.6m-.4 0h5.3m-.4 0h14.6m-.3 0h5.2m-.4 0h27.7m-.4 0h5.3m-.4 0h32.7m-.8 0h22.1m-.4 0h5.3m-.4 0h23M129.5 568.7h24m-.4 0h5.5m-.4 0h18.9m-.8 0h25.3m-.8 0h27.7m-99 509.8h18.4m-.8 0h21.2m-.4 0h5.6m-.4 0h27.7m-.4 0H206m-.4 0h39.2m-.4 0H250m-.4 0h14.7m-.8 0h38.3m-.4 0H307m-.4 0h23.9m-.4 0h5.6m-.4 0h36.9m-.4 0h5.5m-.4 0h24.9m-.8 0h19.4m-.4 0h5.6m-.4 0h15.6m-.4 0h5.5m-.3 0h21.2m-.8 0h30.6m-.4 0h5.6m-.4 0H516m-.3 0h5.5m-.4 0h27.7m-.3 0h5.5m-.4 0H586m-.7 0h22m-.3 0h5.5m-.4 0h23.1m-.4 0h5.5m-.3 0h23.9m-.4 0H669m-.3 0h18.8m-.8 0H712m-.7 0h27.6" class="g0_5"/>
</svg>