<?xml version="1.0" encoding="UTF-8" standalone="no"?>
<!DOCTYPE svg PUBLIC "-//W3C//DTD SVG 1.1//EN"
"http://www.w3.org/Graphics/SVG/1.1/DTD/svg11.dtd">
<svg viewBox="0 0 909 1286" version="1.1" xmlns="http://www.w3.org/2000/svg" xmlns:xlink="http://www.w3.org/1999/xlink">
<defs>
<style type="text/css"><![CDATA[
.g0_3{
fill: none;
stroke: #000;
stroke-width: 0.608;
stroke-miterlimit: 10;
}
]]></style>
</defs>
<path d="M129.9 166.8H809.7M130.2 198.1v-31m67.7 31v-31m119.6 31v-31m304.8 31v-31m103.7 31v-31m83.4 31v-31M130.2 229.2V198.1m67.7 31.1V198.1m119.6 31.1V198.1m304.8 31.1V198.1M726 229.2V198.1m83.4 31.1V198.1M129.9 229.5H809.7M130.2 260.8v-31m67.7 31v-31m119.6 31v-31m304.8 31v-31m103.7 31v-31m83.4 31v-31M130.2 291.9V260.8m67.7 31.1V260.8m119.6 31.1V260.8m304.8 31.1V260.8M726 291.9V260.8m83.4 31.1V260.8M130.2 322.9v-31m67.7 31v-31m119.6 31v-31m304.8 31v-31m103.7 31v-31m83.4 31v-31M130.2 354V322.9M197.9 354V322.9M317.5 354V322.9M622.3 354V322.9M726 354V322.9M809.4 354V322.9M129.9 354.3H809.7M129.9 465.5H832.4M130.2 496.9V465.8m130.4 31.1V465.8m72.3 31.1V465.8M639 496.9V465.8m103.1 31.1V465.8m90 31.1V465.8M130.2 527.9v-31m130.4 31v-31m72.3 31v-31m306.1 31v-31m103.1 31v-31m90 31v-31M129.9 528.2H832.4M130.2 559.6V528.5m130.4 31.1V528.5m72.3 31.1V528.5M639 559.6V528.5m103.1 31.1V528.5m90 31.1V528.5M130.2 590.6v-31m130.4 31v-31m72.3 31v-31m306.1 31v-31m103.1 31v-31m90 31v-31M129.9 590.9H832.4M130.2 622.3V591.2m130.4 31.1V591.2m72.3 31.1V591.2M639 622.3V591.2m103.1 31.1V591.2m90 31.1V591.2M130.2 653.3v-31m130.4 31v-31m72.3 31v-31m306.1 31v-31m103.1 31v-31m90 31v-31M129.9 653.6H832.4M130.2 685V653.9M260.6 685V653.9M332.9 685V653.9M639 685V653.9M742.1 685V653.9m90 31.1V653.9M129.9 685.3H832.4M130.2 716.7V685.6m130.4 31.1V685.6m72.3 31.1V685.6M639 716.7V685.6m103.1 31.1V685.6m90 31.1V685.6M130.2 747.7v-31m130.4 31v-31m72.3 31v-31m306.1 31v-31m103.1 31v-31m90 31v-31M129.9 748H832.4M129.9 820.5H848.4M130.2 851.8v-31m130.4 31v-31m72.3 31v-31m322.1 31v-31m103 31v-31m90.1 31v-31M130.2 882.9V851.8m130.4 31.1V851.8m72.3 31.1V851.8M655 882.9V851.8m103 31.1V851.8m90.1 31.1V851.8M129.9 883.2H848.4M130.2 914.5v-31m130.4 31v-31m72.3 31v-31m322.1 31v-31m103 31v-31m90.1 31v-31M130.2 945.6V914.5m130.4 31.1V914.5m72.3 31.1V914.5M655 945.6V914.5m103 31.1V914.5m90.1 31.1V914.5M129.9 945.9H848.4M130.2 977.2v-31m130.4 31v-31m72.3 31v-31m322.1 31v-31m103 31v-31m90.1 31v-31m-717.9 62.1V977.2m130.4 31.1V977.2m72.3 31.1V977.2M655 1008.3V977.2m103 31.1V977.2m90.1 31.1V977.2m-718.2 31.4H848.4m-718.2 31.3v-31m130.4 31v-31m72.3 31v-31m322.1 31v-31m103 31v-31m90.1 31v-31M130.2 1071v-31.1M260.6 1071v-31.1m72.3 31.1v-31.1M655 1071v-31.1M758 1071v-31.1m90.1 31.1v-31.1m-718.2 31.4H848.4m-718.2 31.4v-31.1m130.4 31.1v-31.1m72.3 31.1v-31.1M655 1102.7v-31.1m103 31.1v-31.1m90.1 31.1v-31.1m-717.9 62.1v-31m130.4 31v-31m72.3 31v-31m322.1 31v-31m103 31v-31m90.1 31v-31M129.9 1134H848.4" class="g0_3"/>
</svg>